<svg xmlns="http://www.w3.org/2000/svg" data-name="Ebene 1" viewBox="0 0 148.82 59.53"><path d="M0 0h59.53v59.53H0z" style="fill:#fff"/><path d="M2.13 2.13V57.4H57.4V2.13Zm15 39-.56-3.89L14 41.1H8V18.43h5.75v11.76l2.5-3.49h5.92l.62 3.62 7.1-11.89h6.4L22.92 41.1Zm33.61-17h-9.58l-1.6 2.63h9.56l-3.3 5.64h-9.6l-1.9 3.23h9.6l-3.27 5.47H24.59l13.22-22.67H54Z" style="fill:#e3000b"/><path d="M109 31.35h-7v1.72h2.56v7.86h2v-7.86H109Zm-16.5 0h-6.24v9.58h6.19v-1.69H88.2V37h3.41v-1.72H88.2V33h4.25Zm-14.32 0h-6.2v9.58h6.2v-1.69h-4.31V37h3.41v-1.72h-3.41V33h4.26ZM82.66 28l1.84-9.58h-2l-1.18 7.91h-.21l-1.72-7.91h-2.3l-1.72 7.91h-.21L74 18.43h-2L73.76 28h2.95l1.5-7.29L79.72 28Zm-3.15 12.93H85v-1.72h-3.55v-7.86h-1.94Zm6.35-20.55h2v-1.95h-2Zm5.36 0h1.94v-1.95h-1.94Zm1.94 4.39v-3.49h-1.94v3.53a1.71 1.71 0 0 1-3.41 0v-3.53h-2v3.49c0 2.39 1.26 3.41 3.65 3.41s3.65-1 3.65-3.41m2.7 6.58h-1.89v9.58h1.94v-3.67l1.3-.15 1.61 3.82H101l-2.15-4.77 2.15-4.81h-2.26l-1.58 4.07-1.3.14Zm4.3-9.74c0 .85-.4 1.52-1.37 1.52H97v-3h1.77a1.33 1.33 0 0 1 1.4 1.52m2 0c0-2.18-1.19-3.15-3.38-3.15H95V28h2v-3.21h1.87L100 28h2.13l-1.36-3.67a3 3 0 0 0 1.4-2.76m5.55-1.44h2.53v-1.7h-7v1.71h2.56V28h2ZM112.24 33H114c.93 0 1.39.61 1.39 1.53s-.39 1.53-1.39 1.53h-1.8Zm1.76-1.65h-3.7v9.58h1.94v-3.21h1.87l1.12 3.21h2.13L116 37.27a3 3 0 0 0 1.41-2.76c0-2.19-1.2-3.16-3.38-3.16m3.1-3.34h1.94v-9.58h-1.94v3.91h-3.56v-3.91h-2V28h2v-4h3.56Zm7.54 8.19c0 2.21-.39 3.21-2 3.21s-2-1-2-3.21.39-3.33 2-3.33 2 1.12 2 3.33m2 0c0-3.24-1-5-4-5s-4 1.78-4 5 1 4.9 4 4.9 4-1.66 4-4.9m6.06 4.73h3.2v-9.58H134v7.89h-.14l-2.32-7.89h-3.28v9.58h1.95V33h.14Zm5.24 0h1.95v-9.58H138Zm8.72-4.77 2.08-4.81h-2.21L145 35.42l-1.29.14v-4.21h-2v9.58h2v-3.67l1.29-.15 1.61 3.82h2.24Z"/></svg>