<?xml version="1.0" standalone="no"?>
<!DOCTYPE svg PUBLIC "-//W3C//DTD SVG 20010904//EN"
 "http://www.w3.org/TR/2001/REC-SVG-20010904/DTD/svg10.dtd">
<svg version="1.0" xmlns="http://www.w3.org/2000/svg"
 width="1240.000000pt" height="496.000000pt" viewBox="0 0 1240.000000 496.000000"
 preserveAspectRatio="xMidYMid meet">

<g transform="translate(0.000000,496.000000) scale(0.100000,-0.100000)"
fill="#000000" stroke="none">
<path d="M180 2480 l0 -2300 2300 0 2300 0 0 2300 0 2300 -2300 0 -2300 0 0
-2300z m962 463 l3 -488 101 140 100 140 246 3 c229 2 247 1 251 -15 3 -10 15
-78 28 -151 13 -81 25 -128 30 -120 5 7 138 230 296 496 l288 482 264 0 c246
0 263 -1 258 -17 -2 -10 -250 -436 -550 -948 l-546 -930 -237 -3 c-131 -1
-241 1 -246 6 -4 4 -17 73 -28 152 -12 80 -22 149 -23 153 -2 5 -51 -64 -110
-152 l-107 -161 -250 0 -250 0 0 950 0 950 240 0 240 0 2 -487z m3357 480 c0
-5 -62 -111 -137 -238 l-137 -230 -399 -5 -399 -5 -64 -102 -63 -103 395 0
c217 0 395 -3 395 -6 0 -3 -62 -111 -137 -240 l-137 -234 -400 0 -401 0 -72
-125 c-40 -68 -73 -127 -73 -130 0 -2 178 -6 395 -7 l396 -3 -138 -232 -138
-233 -667 0 c-368 0 -668 2 -668 5 0 3 248 430 551 950 l551 945 674 0 c371 0
674 -3 673 -7z"/>
<path d="M6004 4428 c7 -35 41 -215 77 -400 l64 -338 122 0 122 0 10 38 c5 20
33 153 62 294 29 142 54 256 57 254 3 -4 47 -209 113 -533 l10 -53 125 0 c68
0 124 2 124 4 0 3 34 181 75 397 41 215 75 393 75 395 0 2 -38 4 -85 4 l-84 0
-6 -32 c-3 -18 -23 -157 -45 -308 -46 -311 -47 -320 -58 -320 -5 0 -39 143
-77 318 -37 174 -70 323 -73 330 -5 13 -192 18 -192 4 0 -18 -139 -644 -144
-650 -3 -3 -8 -3 -10 -1 -2 2 -26 150 -53 329 l-49 325 -86 3 -86 3 12 -63z"/>
<path d="M7152 4408 l3 -83 80 0 80 0 3 83 3 82 -86 0 -86 0 3 -82z"/>
<path d="M7600 4405 l0 -85 80 0 80 0 0 85 0 85 -80 0 -80 0 0 -85z"/>
<path d="M7920 4091 l0 -401 80 0 80 0 0 135 0 135 79 0 78 0 45 -132 45 -133
91 -3 90 -3 -42 113 c-76 200 -74 184 -33 226 51 54 70 98 75 177 8 129 -28
202 -123 250 -60 30 -61 30 -262 34 l-203 3 0 -401z m391 221 c25 -28 29 -40
29 -93 0 -54 -3 -64 -29 -90 -29 -28 -32 -29 -130 -29 l-101 0 0 126 0 126
101 -4 c99 -3 101 -3 130 -36z"/>
<path d="M8600 4415 l0 -75 105 0 105 0 0 -325 0 -325 80 0 80 0 0 325 0 325
105 0 105 0 0 75 0 75 -290 0 -290 0 0 -75z"/>
<path d="M9300 4090 l0 -400 80 0 80 0 0 165 0 165 150 0 150 0 0 -165 0 -165
80 0 80 0 0 400 0 400 -80 0 -80 0 0 -165 0 -165 -150 0 -150 0 0 165 0 165
-80 0 -80 0 0 -400z"/>
<path d="M7153 4063 c5 -207 13 -243 64 -303 49 -56 122 -82 240 -82 115 0
182 21 233 72 60 60 70 105 70 317 l0 183 -80 0 -80 0 0 -165 c0 -188 -9 -223
-61 -250 -23 -13 -49 -16 -96 -13 -53 3 -68 9 -91 31 l-27 27 -3 185 -3 185
-86 0 -85 0 5 -187z"/>
<path d="M10159 3419 c-169 -17 -252 -129 -266 -359 -6 -112 9 -232 38 -300
29 -69 93 -125 165 -146 70 -20 229 -15 285 9 129 56 175 174 167 424 -5 154
-23 218 -78 285 -57 69 -170 101 -311 87z m172 -177 c41 -45 53 -101 53 -242
0 -105 -3 -132 -21 -172 -26 -58 -60 -80 -128 -86 -75 -6 -121 18 -149 77 -18
40 -21 64 -21 191 0 130 2 150 22 190 32 65 63 81 147 77 62 -3 71 -6 97 -35z"/>
<path d="M5990 3010 l0 -400 260 0 260 0 0 70 0 70 -175 0 -175 0 0 95 0 95
140 0 140 0 0 70 0 70 -140 0 -140 0 0 95 0 95 175 0 175 0 0 70 0 70 -260 0
-260 0 0 -400z"/>
<path d="M6622 3013 l3 -398 228 -3 227 -2 0 75 0 75 -145 0 -145 0 0 325 0
325 -85 0 -85 0 2 -397z"/>
<path d="M7190 3010 l0 -400 255 0 255 0 0 70 0 70 -175 0 -175 0 0 95 0 95
140 0 140 0 0 70 0 70 -140 0 -140 0 0 95 0 95 175 0 175 0 0 70 0 70 -255 0
-255 0 0 -400z"/>
<path d="M7822 3013 l3 -398 83 -3 82 -3 0 154 0 154 52 7 c29 4 54 4 56 -1 1
-4 31 -75 66 -158 l64 -150 91 -3 c50 -1 91 1 91 5 0 4 -39 95 -86 201 l-86
192 70 163 c39 89 78 179 87 200 l15 37 -92 0 -93 0 -65 -170 c-56 -147 -68
-170 -86 -170 -12 0 -36 -3 -53 -6 l-31 -6 0 176 0 176 -85 0 -85 0 2 -397z"/>
<path d="M8490 3340 l0 -70 105 0 105 0 2 -327 3 -328 83 -3 82 -3 0 331 0
330 105 0 105 0 0 70 0 70 -295 0 -295 0 0 -70z"/>
<path d="M9190 3010 l0 -400 80 0 80 0 0 135 0 135 79 0 78 0 48 -135 47 -135
89 0 88 0 -28 78 c-16 42 -41 110 -56 150 l-28 73 35 37 c51 53 70 97 76 173
7 98 -12 162 -62 214 -62 65 -109 75 -338 75 l-188 0 0 -400z m390 234 c45
-44 45 -154 0 -198 -18 -18 -35 -21 -125 -24 l-105 -4 0 127 0 127 105 -4 c90
-3 107 -6 125 -24z"/>
<path d="M10682 3013 l3 -398 83 -3 82 -3 0 332 c0 183 2 330 6 327 3 -3 49
-151 103 -329 l98 -324 134 0 134 0 3 398 2 397 -85 0 -85 0 -2 -332 -3 -333
-73 250 c-41 138 -85 287 -98 333 l-25 82 -140 0 -139 0 2 -397z"/>
<path d="M11500 3010 l0 -400 80 0 80 0 0 400 0 400 -80 0 -80 0 0 -400z"/>
<path d="M11810 3010 l0 -400 80 0 80 0 0 154 0 153 51 7 c29 4 55 3 59 -1 4
-4 35 -77 70 -160 l63 -153 93 0 c93 0 93 0 85 23 -5 12 -45 102 -89 200 l-81
177 79 180 c109 249 109 221 0 218 l-91 -3 -64 -163 c-35 -90 -65 -165 -67
-167 -2 -1 -27 -6 -55 -10 l-53 -7 0 176 0 176 -80 0 -80 0 0 -400z"/>
<path d="M7128 2350 c-151 -46 -204 -165 -196 -443 4 -124 9 -162 26 -208 23
-58 66 -106 120 -133 74 -38 254 -36 331 3 23 12 55 40 71 63 51 70 64 133 65
308 0 134 -3 165 -23 228 -29 94 -84 153 -163 176 -55 17 -185 20 -231 6z
m232 -83 c36 -19 51 -35 75 -82 29 -56 30 -65 34 -211 3 -169 -7 -239 -43
-295 -37 -56 -85 -74 -191 -74 -102 1 -139 15 -178 67 -38 51 -48 94 -54 224
-9 183 17 293 81 353 57 53 189 62 276 18z"/>
<path d="M5990 1950 l0 -400 40 0 40 0 0 368 c0 213 4 361 9 352 5 -8 59 -157
121 -330 62 -173 117 -328 122 -343 9 -25 14 -28 52 -25 l41 3 121 339 c66
186 125 345 132 355 8 12 11 -77 11 -351 l1 -368 35 0 35 0 0 400 0 401 -67
-3 -67 -3 -119 -343 c-66 -189 -123 -339 -127 -335 -4 4 -60 160 -125 346
l-118 337 -68 0 -69 0 0 -400z"/>
<path d="M7720 1950 l0 -400 35 0 35 0 0 155 0 155 123 0 122 0 78 -155 77
-155 39 0 40 0 -78 163 -78 162 46 25 c36 19 52 37 74 80 26 50 28 63 25 140
-4 99 -26 152 -78 187 -53 37 -95 43 -282 43 l-178 0 0 -400z m349 329 c89
-19 134 -101 117 -211 -9 -58 -35 -97 -78 -119 -31 -16 -59 -19 -178 -19
l-140 0 0 173 c0 96 3 177 7 180 10 11 217 8 272 -4z"/>
<path d="M8430 1950 l0 -400 240 0 240 0 0 30 0 30 -205 0 -205 0 0 155 0 155
170 0 170 0 0 35 0 35 -170 0 -170 0 0 145 0 145 203 2 202 3 3 33 3 32 -240
0 -241 0 0 -400z"/>
<path d="M9270 2315 l0 -35 125 0 125 0 0 -365 0 -365 35 0 35 0 0 365 0 365
125 0 125 0 0 35 0 35 -285 0 -285 0 0 -35z"/>
<path d="M9980 1950 l0 -400 35 0 35 0 0 185 0 185 215 0 215 0 0 -185 0 -185
35 0 35 0 0 400 0 400 -35 0 -35 0 0 -185 0 -185 -215 0 -215 0 0 185 0 185
-35 0 -35 0 0 -400z"/>
<path d="M10811 1960 c-61 -214 -111 -394 -111 -400 0 -5 15 -10 33 -10 l34 0
30 108 30 107 179 0 179 0 30 -107 30 -108 36 0 36 0 -99 348 c-54 191 -105
371 -113 400 l-16 52 -83 0 -83 0 -112 -390z m287 108 c34 -123 62 -226 62
-230 0 -13 -310 -10 -310 3 0 12 120 430 126 441 3 5 18 8 33 8 27 0 28 -2 89
-222z"/>
<path d="M11460 1950 l0 -400 35 0 35 0 0 365 c0 304 2 365 14 365 8 0 78
-141 178 -362 l165 -363 72 -3 71 -3 0 401 0 400 -35 0 -35 0 0 -370 c0 -300
-3 -370 -13 -370 -8 0 -82 153 -179 368 l-166 367 -71 3 -71 3 0 -401z"/>
<path d="M6856 1290 c-87 -22 -143 -73 -180 -161 -24 -57 -39 -213 -31 -318
12 -177 56 -264 154 -309 49 -23 69 -26 156 -26 87 0 107 3 156 26 96 44 133
113 150 280 12 119 -1 272 -31 350 -23 62 -77 119 -135 144 -47 20 -184 27
-239 14z m209 -79 c49 -22 68 -43 97 -106 21 -46 23 -64 23 -225 0 -168 -1
-177 -26 -231 -40 -85 -77 -104 -204 -104 -127 0 -164 19 -204 104 -25 54 -26
63 -26 226 0 111 5 185 13 213 16 54 74 119 116 131 56 16 167 12 211 -8z"/>
<path d="M11205 1291 c-83 -22 -142 -78 -171 -163 -27 -76 -28 -395 -1 -481
22 -72 73 -130 135 -154 52 -20 160 -24 275 -10 l67 9 0 35 c0 32 -2 35 -22
29 -13 -4 -75 -9 -138 -12 -107 -5 -118 -4 -160 18 -86 44 -117 151 -107 368
6 139 18 190 52 236 43 56 83 67 219 61 67 -3 129 -8 139 -12 14 -6 17 -1 17
28 0 32 -3 35 -37 41 -64 11 -236 16 -268 7z"/>
<path d="M6004 1273 c4 -10 61 -116 127 -235 l119 -217 0 -170 0 -171 35 0 35
0 0 171 0 171 120 217 c65 119 122 225 126 235 6 15 2 17 -32 14 l-39 -3 -87
-160 c-48 -88 -96 -175 -106 -192 l-18 -33 -105 193 -104 192 -39 3 c-34 3
-38 1 -32 -15z"/>
<path d="M7434 1276 c-3 -8 -4 -154 -2 -323 3 -268 6 -313 21 -348 43 -95 111
-130 257 -130 84 0 102 4 153 28 44 22 63 39 85 75 l27 47 3 333 3 332 -35 0
-36 0 0 -302 c0 -169 -4 -319 -10 -339 -12 -42 -52 -82 -99 -98 -53 -17 -160
-13 -208 8 -78 36 -77 33 -83 401 l-5 325 -33 3 c-22 2 -34 -2 -38 -12z"/>
<path d="M8410 885 l0 -405 240 0 240 0 0 35 0 35 -205 0 -205 0 0 155 0 155
170 0 170 0 0 35 0 35 -170 0 -170 0 0 145 0 145 205 0 205 0 0 35 0 35 -240
0 -240 0 0 -405z"/>
<path d="M9010 1286 c0 -3 54 -93 120 -201 66 -107 120 -200 120 -206 0 -5
-54 -95 -120 -199 -66 -105 -120 -192 -120 -195 0 -4 17 -5 37 -3 37 3 40 6
143 170 58 93 108 168 112 168 3 0 41 -57 84 -127 128 -211 130 -213 171 -213
26 0 34 4 30 14 -3 8 -58 98 -122 200 l-117 186 121 199 c67 109 121 202 121
206 0 3 -17 5 -37 3 -37 -3 -39 -5 -142 -175 -57 -95 -107 -170 -112 -168 -4
3 -53 82 -110 175 l-102 170 -39 0 c-21 0 -38 -2 -38 -4z"/>
<path d="M9735 1277 c-3 -6 -4 -188 -3 -402 l3 -390 35 0 35 0 3 138 3 137
113 0 c198 0 273 28 318 119 20 39 23 62 23 156 0 92 -3 116 -20 144 -31 53
-84 89 -144 101 -80 15 -360 13 -366 -3z m385 -75 c23 -11 43 -33 58 -62 20
-38 23 -56 19 -121 -4 -87 -24 -131 -77 -166 -30 -21 -44 -23 -171 -23 l-139
0 0 195 0 195 138 0 c110 0 144 -3 172 -18z"/>
<path d="M10420 885 l0 -405 240 0 240 0 0 35 0 35 -205 0 -205 0 0 155 0 155
170 0 170 0 0 35 0 35 -170 0 -170 0 0 145 0 145 205 0 205 0 0 35 0 35 -240
0 -240 0 0 -405z"/>
<path d="M11620 1255 l0 -35 125 0 125 0 2 -367 3 -368 33 -3 32 -3 0 370 0
371 125 0 125 0 0 35 0 35 -285 0 -285 0 0 -35z"/>
</g>
</svg>
